<?xml version="1.0" encoding="UTF-8"?>
<svg width="1130px" height="440px" viewBox="0 0 1130 440" version="1.1" xmlns="http://www.w3.org/2000/svg" xmlns:xlink="http://www.w3.org/1999/xlink">
    <!-- Generator: Sketch 55.1 (78136) - https://sketchapp.com -->
    <title>Group 3</title>
    <desc>Created with Sketch.</desc>
    <g id="Page-1" stroke="none" stroke-width="1" fill="none" fill-rule="evenodd">
        <g id="Artboard" transform="translate(-132.000000, -209.000000)">
            <g id="Group-3" transform="translate(136.000000, 213.000000)">
                <g id="Room" transform="translate(622.000000, 0.000000)" stroke="#16103C" stroke-linecap="round" stroke-linejoin="round" stroke-width="8">
                    <polygon id="Line" points="9.09552889e-13 0 268.341013 0 268.341013 273.438011 9.09494702e-13 273.438011"></polygon>
                    <polygon id="Line" fill="#D8D8D8" points="84.6036608 431.388342 499.884401 431.388342 268.841013 273.364268 0.5 273.364268"></polygon>
                    <polygon id="Line" points="87.8410133 86.8022782 499.841013 86.8022782 499.841013 431.802278 87.8410133 431.802278"></polygon>
                    <polygon id="Line" transform="translate(383.862707, 215.731042) scale(-1, 1) translate(-383.862707, -215.731042) " points="268.341013 85.7022384 499.384401 5.68434189e-14 499.384401 273.438011 268.341013 431.462085"></polygon>
                    <polygon id="Line" transform="translate(43.920507, 215.694171) scale(-1, 1) translate(-43.920507, -215.694171) " points="-9.09475837e-13 86.8022782 87.8410133 0 87 273.802278 -9.09494702e-13 431.388342"></polygon>
                </g>
                <g id="Group-7" transform="translate(908.000000, 323.000000)">
                    <ellipse id="Oval" fill-opacity="0.1" fill="#16103C" cx="60" cy="65" rx="60" ry="13"></ellipse>
                    <g id="Group" transform="translate(16.000000, 0.000000)">
                        <g id="Group-2">
                            <path d="M40.5,63 C62.8675324,63 81,63.0716792 81,40.6315138 C81,18.1913483 62.8675324,0 40.5,0 C18.1324676,0 0,18.1913483 0,40.6315138 C0,63.0716792 18.1324676,63 40.5,63 Z" id="Oval" stroke="#16103C" stroke-width="8" fill="#FFFFFF"></path>
                            <ellipse id="Oval" fill="#16103C" cx="25.9532374" cy="43.9583333" rx="4.95323741" ry="4.95833333"></ellipse>
                            <ellipse id="Oval" fill="#16103C" cx="62.9532374" cy="38.9583333" rx="4.95323741" ry="4.95833333"></ellipse>
                        </g>
                    </g>
                </g>
                <g id="Inner-Room" transform="translate(780.000000, 262.000000)">
                    <g id="Boop-2">
                        <ellipse id="Oval" fill-opacity="0.1" fill="#16103C" cx="60" cy="61" rx="60" ry="13"></ellipse>
                        <g id="Group" transform="translate(19.000000, 0.000000)">
                            <g id="Group-2">
                                <path d="M40.5,63 C62.8675324,63 81,63.0716792 81,40.6315138 C81,18.1913483 62.8675324,0 40.5,0 C18.1324676,0 0,18.1913483 0,40.6315138 C0,63.0716792 18.1324676,63 40.5,63 Z" id="Oval" stroke="#16103C" stroke-width="8" fill="#FFFFFF"></path>
                                <ellipse id="Oval" fill="#16103C" cx="28.8453237" cy="16.0416667" rx="4.95323741" ry="4.95833333"></ellipse>
                                <ellipse id="Oval" fill="#16103C" cx="52.1546763" cy="16.0416667" rx="4.95323741" ry="4.95833333"></ellipse>
                            </g>
                        </g>
                    </g>
                </g>
                <g id="Room" transform="translate(250.000000, 216.000000) scale(-1, 1) translate(-250.000000, -216.000000) ">
                    <polygon id="Line" stroke="#16103C" stroke-width="8" stroke-linecap="round" stroke-linejoin="round" points="9.09552889e-13 0 268.341013 0 268.341013 273.438011 9.09494702e-13 273.438011"></polygon>
                    <polygon id="Line" stroke="#16103C" stroke-width="8" fill="#D8D8D8" stroke-linecap="round" stroke-linejoin="round" points="84.6036608 431.388342 499.884401 431.388342 268.841013 273.364268 0.5 273.364268"></polygon>
                    <polygon id="Line" stroke="#16103C" stroke-width="8" stroke-linecap="round" stroke-linejoin="round" points="87.8410133 86.8022782 499.841013 86.8022782 499.841013 431.802278 87.8410133 431.802278"></polygon>
                    <g id="Derp" transform="translate(44.000000, 249.000000)">
                        <ellipse id="Oval" fill-opacity="0.1" fill="#16103C" cx="60" cy="63" rx="60" ry="13"></ellipse>
                        <path d="M59.5,63 C81.8675324,63 100,63.0716792 100,40.6315138 C100,18.1913483 81.8675324,0 59.5,0 C37.1324676,0 19,18.1913483 19,40.6315138 C19,63.0716792 37.1324676,63 59.5,63 Z" id="Oval" stroke="#16103C" stroke-width="8" fill="#FFFFFF"></path>
                        <ellipse id="Oval" fill="#16103C" cx="66.9532374" cy="44.9583333" rx="4.95323741" ry="4.95833333"></ellipse>
                        <ellipse id="Oval" fill="#16103C" cx="87.9532374" cy="32.9583333" rx="4.95323741" ry="4.95833333"></ellipse>
                    </g>
                    <polygon id="Line" stroke="#16103C" stroke-width="8" stroke-linecap="round" stroke-linejoin="round" transform="translate(383.862707, 215.731042) scale(-1, 1) translate(-383.862707, -215.731042) " points="268.341013 85.7022384 499.384401 5.68434189e-14 499.384401 273.438011 268.341013 431.462085"></polygon>
                    <polygon id="Line" stroke="#16103C" stroke-width="8" stroke-linecap="round" stroke-linejoin="round" transform="translate(43.920507, 215.694171) scale(-1, 1) translate(-43.920507, -215.694171) " points="-9.09475837e-13 86.8022782 87.8410133 0 87 273.802278 -9.09494702e-13 431.388342"></polygon>
                </g>
                <g id="Group-8" transform="translate(720.000000, 300.000000)">
                    <ellipse id="Oval" fill-opacity="0.1" fill="#16103C" cx="60" cy="60" rx="60" ry="13"></ellipse>
                    <g id="Group" transform="translate(19.000000, 0.000000)">
                        <g id="Group-2">
                            <path d="M40.5,63 C62.8675324,63 81,63.0716792 81,40.6315138 C81,18.1913483 62.8675324,0 40.5,0 C18.1324676,0 0,18.1913483 0,40.6315138 C0,63.0716792 18.1324676,63 40.5,63 Z" id="Oval" stroke="#16103C" stroke-width="8" fill="#FFFFFF"></path>
                            <ellipse id="Oval" fill="#16103C" cx="13.9532374" cy="33.9583333" rx="4.95323741" ry="4.95833333"></ellipse>
                            <ellipse id="Oval" fill="#16103C" cx="52.1546763" cy="16.0416667" rx="4.95323741" ry="4.95833333"></ellipse>
                        </g>
                    </g>
                </g>
                <g id="Boop-1" transform="translate(143.000000, 327.000000)">
                    <ellipse id="Oval" fill-opacity="0.1" fill="#16103C" cx="60" cy="61" rx="60" ry="13"></ellipse>
                    <g id="Group" transform="translate(19.000000, 0.000000)">
                        <g id="Group-2">
                            <path d="M40.5,63 C62.8675324,63 81,63.0716792 81,40.6315138 C81,18.1913483 62.8675324,0 40.5,0 C18.1324676,0 0,18.1913483 0,40.6315138 C0,63.0716792 18.1324676,63 40.5,63 Z" id="Oval" stroke="#16103C" stroke-width="8" fill="#FFFFFF"></path>
                            <ellipse id="Oval" fill="#16103C" cx="15.9532374" cy="31.9583333" rx="4.95323741" ry="4.95833333"></ellipse>
                            <ellipse id="Oval" fill="#16103C" cx="64.9532374" cy="31.9583333" rx="4.95323741" ry="4.95833333"></ellipse>
                        </g>
                    </g>
                </g>
            </g>
        </g>
    </g>
</svg>